<svg width="60" height="60" viewBox="0 0 60 60" fill="none" xmlns="http://www.w3.org/2000/svg">
  <rect width="60" height="60" rx="12" fill="#4285F4"/>
  <circle cx="30" cy="30" r="18" fill="white"/>
  <circle cx="30" cy="30" r="8" fill="#4285F4"/>
  <path d="M30 12c-4.97 0-9.5 2.02-12.73 5.27L25 25h10c2.21 0 4 1.79 4 4 0 .34-.04.67-.12 1h8.85C47.26 26.85 47 23.47 46.73 20.27 43.5 14.02 37.47 12 30 12z" fill="#EA4335"/>
  <path d="M17.27 17.27C14.02 20.5 12 24.97 12 30c0 7.47 2.02 13.5 8.27 16.73L28 38v-8c0-2.21 1.79-4 4-4 .34 0 .67.04 1 .12v-8.85C29.85 17.74 26.47 17 23.27 17z" fill="#FBBC04"/>
  <path d="M42.73 42.73C46.98 39.5 49 35.03 49 30c0-7.47-2.02-13.5-8.27-16.73L33 22v8c0 2.21-1.79 4-4 4-.34 0-.67-.04-1-.12v8.85C31.15 42.26 34.53 43 37.73 43z" fill="#34A853"/>
</svg>