<svg width="60" height="60" viewBox="0 0 60 60" fill="none" xmlns="http://www.w3.org/2000/svg">
  <rect width="60" height="60" rx="12" fill="#3776AB"/>
  <path d="M30 10c-5.5 0-10 4.5-10 10v5h10v2H15c-2.8 0-5 2.2-5 5v8c0 2.8 2.2 5 5 5h5v-7c0-2.8 2.2-5 5-5h10c2.8 0 5-2.2 5-5V20c0-5.5-4.5-10-10-10zm-5 6c1.1 0 2 .9 2 2s-.9 2-2 2-2-.9-2-2 .9-2 2-2z" fill="#FFD43B"/>
  <path d="M30 50c5.5 0 10-4.5 10-10v-5H30v-2h15c2.8 0 5-2.2 5-5v-8c0-2.8-2.2-5-5-5h-5v7c0 2.8-2.2 5-5 5H25c-2.8 0-5 2.2-5 5v10c0 5.5 4.5 10 10 10zm5-6c-1.1 0-2-.9-2-2s.9-2 2-2 2 .9 2 2-.9 2-2 2z" fill="#3776AB"/>
</svg>