<svg width="64" height="64" viewBox="0 0 64 64" fill="none" xmlns="http://www.w3.org/2000/svg">
  <!-- Background circle -->
  <circle cx="32" cy="32" r="30" fill="#4285F4" stroke="#1A73E8" stroke-width="2"/>
  
  <!-- gRPC logo elements -->
  <g transform="translate(12, 12)">
    <!-- Main gRPC symbol -->
    <path d="M20 8 L32 8 L32 12 L24 12 L24 20 L32 20 L32 24 L20 24 Z" fill="white" opacity="0.9"/>
    <path d="M20 28 L32 28 L32 32 L24 32 L24 40 L32 40 L32 44 L20 44 Z" fill="white" opacity="0.7"/>
    
    <!-- Code brackets -->
    <path d="M8 16 L12 12 L12 16 L16 16 L16 20 L12 20 L12 24 L8 20 Z" fill="white" opacity="0.8"/>
    <path d="M36 16 L32 12 L32 16 L28 16 L28 20 L32 20 L32 24 L36 20 Z" fill="white" opacity="0.8"/>
    
    <!-- Connection lines representing RPC -->
    <line x1="4" y1="18" x2="8" y2="18" stroke="white" stroke-width="2" opacity="0.6"/>
    <line x1="36" y1="18" x2="40" y2="18" stroke="white" stroke-width="2" opacity="0.6"/>
    
    <!-- Small dots representing data flow -->
    <circle cx="6" cy="18" r="1" fill="white" opacity="0.8"/>
    <circle cx="38" cy="18" r="1" fill="white" opacity="0.8"/>
  </g>
  
  <!-- Text elements -->
  <text x="32" y="52" text-anchor="middle" font-family="Arial, sans-serif" font-size="8" font-weight="bold" fill="#1A73E8">gRPC</text>
  <text x="32" y="60" text-anchor="middle" font-family="Arial, sans-serif" font-size="6" fill="#5F6368">READ</text>
</svg>