<svg width="60" height="60" viewBox="0 0 60 60" fill="none" xmlns="http://www.w3.org/2000/svg">
  <rect width="60" height="60" rx="12" fill="#FCC624"/>
  <path d="M30 8c-8 0-14 6-14 14 0 2 0.5 4 1.5 5.5L30 50l12.5-22.5c1-1.5 1.5-3.5 1.5-5.5 0-8-6-14-14-14z" fill="#000"/>
  <ellipse cx="26" cy="18" rx="2" ry="3" fill="#FCC624"/>
  <ellipse cx="34" cy="18" rx="2" ry="3" fill="#FCC624"/>
  <path d="M25 25c0 1 1 2 2 2h6c1 0 2-1 2-2" stroke="#FCC624" stroke-width="2" stroke-linecap="round"/>
  <path d="M28 30c0 1 1 2 2 2s2-1 2-2" stroke="#FCC624" stroke-width="2" stroke-linecap="round"/>
  <path d="M22 35c2 2 4 3 6 3s4-1 6-3" stroke="#FCC624" stroke-width="2" stroke-linecap="round"/>
</svg>